<mxfile host="app.diagrams.net" modified="2023-10-20T06:13:14.605Z" agent="Mozilla/5.0 (Windows NT 10.0; Win64; x64) AppleWebKit/537.36 (KHTML, like Gecko) Chrome/118.0.0.0 Safari/537.36" version="22.0.5" etag="TjhgyikIE89O6QcTQcLm" type="github">
  <diagram name="Страница — 1" id="yh4e-zj951A9Xb1wQFh0">
    <mxGraphModel>
      <root>
        <mxCell id="0" />
        <mxCell id="1" parent="0" />
      </root>
    </mxGraphModel>
  </diagram>
</mxfile>
